<?xml version="1.0" ?><!DOCTYPE svg  PUBLIC '-//W3C//DTD SVG 1.1//EN'  'http://www.w3.org/Graphics/SVG/1.1/DTD/svg11.dtd'><svg height="100%" style="fill-rule:evenodd;clip-rule:evenodd;stroke-linejoin:round;stroke-miterlimit:1.41421;" version="1.1" viewBox="0 0 445 439" width="100%" xml:space="preserve" xmlns="http://www.w3.org/2000/svg" xmlns:serif="http://www.serif.com/" xmlns:xlink="http://www.w3.org/1999/xlink"><rect height="437.207" id="_15.-GIT" style="fill:none;" width="444.236" x="0.573" y="0.915"/><path d="M31.257,205.789l182.445,-182.445c8.225,-8.225 21.561,-8.225 29.787,0l182.444,182.445c8.226,8.225 8.226,21.561 0,29.787l-182.444,182.444c-8.226,8.226 -21.562,8.226 -29.787,0l-182.445,-182.444c-8.225,-8.226 -8.225,-21.562 0,-29.787Z" id="Rounded-Rectangle-1" style="fill:url(#_Linear1);"/><path d="M210.537,30.657c9.927,-9.628 20.901,-13.82 35.15,0c57.92,56.726 115.22,114.092 171.987,171.972c13.091,13.497 11.235,23.567 -0.002,35.154c-56.847,57.802 -114.027,115.286 -171.986,171.971c-13.371,13.077 -21.802,13.053 -35.148,0c-57.959,-56.685 -115.139,-114.169 -171.986,-171.971c-14.201,-14.642 -14.769,-19.929 -0.003,-35.154c56.768,-57.88 114.067,-115.246 171.988,-171.972Zm26.808,8.431c-8.084,-7.732 -16.104,-2.292 -18.531,0.062c-57.869,56.677 -115.441,113.677 -171.835,171.822c-4.752,4.97 -4.731,13.655 0.122,18.59c57.017,57.494 113.652,115.386 171.777,171.759c4.955,4.739 13.491,4.868 18.595,-0.124c57.414,-57.096 115.399,-113.635 171.771,-171.76c4.719,-4.933 4.858,-13.512 -0.121,-18.589c-57.097,-57.415 -113.652,-115.386 -171.778,-171.76Z" style="fill:#fff;fill-opacity:0.533333;fill-rule:nonzero;"/><path d="M225.112,307.199c11.038,0 20,8.289 20,18.5c0,10.21 -8.962,18.5 -20,18.5c-11.038,0 -20,-8.29 -20,-18.5c0,-10.211 8.962,-18.5 20,-18.5Zm-5.227,-177.893c0.729,-0.072 1.474,-0.107 2.227,-0.107c12.694,0 23,10.082 23,22.5c0,0.777 -0.04,1.544 -0.12,2.307l63.233,62.207l-17.742,17.701l-53.437,-52.571l0,118.1l-25.091,0l0,-126.303l3.192,0c-9.293,-2.882 -16.035,-11.398 -16.035,-21.441c0,-2.322 0.36,-4.562 1.027,-6.664l-55.014,-54.123l17.742,-17.701l57.018,56.095Zm93.727,90.893c10.762,0 19.5,8.289 19.5,18.5c0,10.21 -8.738,18.5 -19.5,18.5c-10.762,0 -19.5,-8.29 -19.5,-18.5c0,-10.211 8.738,-18.5 19.5,-18.5Z" id="Ellipse-4" style="fill:url(#_Linear2);"/><path d="M224.5,120.799c16.996,0 30.794,13.766 30.794,30.722c0,16.956 -13.798,30.722 -30.794,30.722c-16.995,0 -30.793,-13.766 -30.793,-30.722c0,-16.956 13.798,-30.722 30.793,-30.722Zm-0.388,14.4c8.83,0 16,7.169 16,16c0,8.83 -7.17,16 -16,16c-8.831,0 -16,-7.17 -16,-16c0,-8.831 7.169,-16 16,-16Z" id="Ellipse-1" style="fill:#0084ff;"/><path d="M224.5,293.754c16.996,0 30.794,13.766 30.794,30.722c0,16.956 -13.798,30.723 -30.794,30.723c-16.995,0 -30.793,-13.767 -30.793,-30.723c0,-16.956 13.798,-30.722 30.793,-30.722Zm-0.388,14.445c8.83,0 16,7.169 16,16c0,8.83 -7.17,16 -16,16c-8.831,0 -16,-7.17 -16,-16c0,-8.831 7.169,-16 16,-16Z" id="Ellipse-1-copy" style="fill:#0084ff;"/><path d="M312.318,207.276c16.996,0 30.794,13.766 30.794,30.723c0,16.956 -13.798,30.722 -30.794,30.722c-16.995,0 -30.793,-13.766 -30.793,-30.722c0,-16.957 13.798,-30.723 30.793,-30.723Zm-0.206,15.923c8.83,0 16,7.169 16,16c0,8.83 -7.17,16 -16,16c-8.831,0 -16,-7.17 -16,-16c0,-8.831 7.169,-16 16,-16Z" id="Ellipse-1-copy-2" style="fill:#0bbc00;"/><path d="M226.326,124.475c2.788,0.232 3.814,5.26 -0.776,5.365c-8.339,0.263 -16.194,5.276 -20.132,12.858c0,0 -0.815,1.227 -1.948,1.411c-1.906,0.309 -3.77,-1.89 -2.808,-3.881c0.631,-1.216 0.787,-1.452 1.208,-2.127c5.035,-8.067 14.167,-13.405 23.793,-13.625c0.221,-0.003 0.442,-0.006 0.663,-0.001Z" style="fill:#fff;fill-opacity:0.6;fill-rule:nonzero;"/><path d="M200.153,149.499c1.633,0.066 2.671,1.522 2.589,3.436c-0.103,2.877 0.282,5.76 1.148,8.517c0,0 0.294,1.929 -0.857,2.874c-1.685,1.383 -3.941,0.287 -4.796,-3.174c-0.735,-2.976 -0.997,-6.07 -0.815,-9.132c0,0 0.441,-2.525 2.731,-2.521Z" style="fill:#fff;fill-opacity:0.6;fill-rule:nonzero;"/><path d="M315.533,211.165c2.512,0.209 2.445,1.137 2.531,2.509c0.101,1.618 -1.329,2.813 -3.32,2.856c-8.409,0.26 -16.453,5.141 -20.499,12.729c0,0 -3.512,3.067 -4.851,-0.26c-0.337,-0.837 -0.522,-1.085 0.349,-2.684c4.973,-8.96 14.785,-14.926 25.122,-15.149c0.223,-0.003 0.445,-0.006 0.668,-0.001Z" style="fill:#fff;fill-opacity:0.6;fill-rule:nonzero;"/><path d="M288.95,235.918c3.799,0.157 2.327,7.419 3.747,11.825c0,0 0.275,2.481 -1.443,3.261c-1.75,0.796 -3.383,-0.379 -4.136,-3.233c-0.268,-1.014 -0.481,-2.043 -0.637,-3.08c-0.311,-2.066 -0.392,-4.166 -0.266,-6.255c0,0 0.453,-2.524 2.735,-2.518Z" style="fill:#fff;fill-opacity:0.6;fill-rule:nonzero;"/><path d="M227.56,297.192c2.78,0.234 3.91,5.263 -0.791,5.365c-8.42,0.261 -16.495,5.137 -20.546,12.71c0,0 -1.211,1.645 -2.803,1.38c-1.684,-0.28 -2.796,-2.153 -1.923,-3.907c0.644,-1.205 0.803,-1.439 1.233,-2.106c5.164,-8.029 14.442,-13.231 24.16,-13.441c0.224,-0.003 0.447,-0.006 0.67,-0.001Z" style="fill:#fff;fill-opacity:0.6;fill-rule:nonzero;"/><path d="M200.924,321.907c3.85,0.159 2.33,7.43 3.748,11.804c0,0 0.178,3.192 -2.224,3.486c-2.438,0.299 -3.476,-3.312 -3.948,-6.241c-0.348,-2.156 -0.443,-4.351 -0.311,-6.532c0,0 0.445,-2.524 2.735,-2.517Z" style="fill:#fff;fill-opacity:0.6;fill-rule:nonzero;"/><defs><linearGradient gradientTransform="matrix(2.45056e-14,400.207,-400.207,2.45056e-14,229.443,62.0201)" gradientUnits="userSpaceOnUse" id="_Linear1" x1="0" x2="1" y1="0" y2="0"><stop offset="0" style="stop-color:#cce6ff;stop-opacity:1"/><stop offset="0.57" style="stop-color:#a9d6ff;stop-opacity:1"/><stop offset="1" style="stop-color:#1d98ff;stop-opacity:1"/></linearGradient><linearGradient gradientTransform="matrix(-152.957,98.548,-98.548,-152.957,259.144,198.11)" gradientUnits="userSpaceOnUse" id="_Linear2" x1="0" x2="1" y1="0" y2="0"><stop offset="0" style="stop-color:#fff;stop-opacity:1"/><stop offset="1" style="stop-color:#88cfff;stop-opacity:1"/></linearGradient></defs></svg>