<?xml version="1.0" encoding="UTF-8"?>
<svg xmlns="http://www.w3.org/2000/svg" xmlns:xlink="http://www.w3.org/1999/xlink" viewBox="0 0 32 32" width="32px" height="32px">
<g id="surface11030169">
<path style=" stroke:none;fill-rule:nonzero;fill:rgb(20.392157%,59.607846%,85.882354%);fill-opacity:1;" d="M 5 5 L 5 27 L 27 27 L 27 5 Z M 7 7 L 25 7 L 25 25 L 7 25 Z M 16.871094 10.363281 C 16.238281 10.363281 15.867188 10.699219 15.867188 11.332031 C 15.867188 11.972656 16.238281 12.332031 16.871094 12.332031 C 17.511719 12.332031 17.882812 11.972656 17.882812 11.332031 C 17.882812 10.699219 17.511719 10.363281 16.871094 10.363281 Z M 19.984375 11.417969 C 19.863281 12.625 19.472656 13.113281 18.503906 13.222656 L 18.503906 14.214844 C 19.398438 14.214844 19.363281 14.179688 19.363281 14.324219 L 19.363281 17.242188 C 19.363281 18.492188 19.867188 19 21.195312 19 C 21.824219 19 22.519531 18.820312 23 18.582031 L 22.695312 17.597656 C 20.910156 18.273438 21 17.054688 21 16.867188 L 21 14.214844 L 22.695312 14.214844 L 22.695312 13.105469 L 21 13.105469 L 21 11.417969 Z M 11.726562 13.214844 C 10.570312 13.21875 9.171875 13.683594 9.171875 15.382812 C 9.171875 16.195312 9.589844 16.773438 10.132812 17.046875 C 9.445312 17.675781 9.117188 17.972656 9.117188 18.386719 C 9.117188 18.691406 9.25 18.960938 9.609375 19.125 C 9.226562 19.484375 9 19.757812 9 20.257812 C 9 21.128906 9.773438 21.640625 11.777344 21.640625 C 13.714844 21.640625 14.835938 20.921875 14.835938 19.648438 C 14.835938 18.039062 13.605469 18.101562 10.6875 17.917969 L 11.058594 17.328125 C 11.796875 17.535156 14.300781 17.601562 14.300781 15.476562 C 14.300781 14.964844 14.09375 14.605469 13.886719 14.355469 L 14.910156 14.28125 L 14.910156 13.332031 L 12.746094 13.332031 C 12.472656 13.261719 12.113281 13.214844 11.730469 13.214844 Z M 15.554688 13.222656 L 15.433594 14.128906 C 16.121094 14.367188 16.175781 14.332031 16.175781 14.5625 L 16.175781 17.839844 C 16.175781 18.078125 16.164062 18.035156 15.433594 18.136719 L 15.433594 19 L 18.601562 19 L 18.601562 18.136719 L 18.035156 18.058594 C 17.871094 18.035156 17.863281 18.015625 17.863281 17.839844 L 17.863281 13.226562 Z M 11.820312 14.324219 C 13.179688 14.324219 13.214844 16.261719 11.785156 16.261719 C 10.351562 16.261719 10.414062 14.324219 11.820312 14.324219 Z M 10.597656 19.417969 C 12.722656 19.570312 13.179688 19.515625 13.179688 19.941406 C 13.179688 20.824219 10.316406 20.824219 10.316406 20.003906 C 10.316406 19.789062 10.457031 19.601562 10.597656 19.417969 Z M 10.597656 19.417969 "/>
</g>
</svg>
